<?xml version="1.0" encoding="utf-8"?>
<!-- Generator: Adobe Illustrator 22.0.1, SVG Export Plug-In . SVG Version: 6.00 Build 0)  -->
<svg version="1.1" id="Calque_1" xmlns="http://www.w3.org/2000/svg" xmlns:xlink="http://www.w3.org/1999/xlink" x="0px" y="0px"
	 viewBox="0 0 285.9 233" style="enable-background:new 0 0 285.9 233;" xml:space="preserve">
<style type="text/css">
	.st0{fill:#2C2C2C;}
</style>
<g>
	<g>
		<path class="st0" d="M124.3,152.7V33.1l-21.4,0c-21.3,0-39.6,15.2-40.8,35c-0.9,13.5,6.1,26.2,18.2,33.5l5.1,3.1l-23.9,41.4
			c-2.3,4-6.8,6.5-11.7,6.5h-7.2l25.4-44C55.7,99.1,48.6,85,48.7,69.8c0.3-27.4,25-49.1,54.4-49.1l34.5,0v119.5
			C137.6,147.1,131.7,152.7,124.3,152.7L124.3,152.7z"/>
		<path class="st0" d="M162.3,152.7V33.1l21.4,0c21.3,0,39.6,15.2,40.8,35c0.9,13.5-6.1,26.2-18.2,33.5l-5.1,3.1l23.9,41.4
			c2.3,4,6.8,6.5,11.7,6.5h7.2l-25.4-44c12.3-9.5,19.5-23.6,19.3-38.8c-0.3-27.4-25-49.1-54.4-49.1l-34.5,0v119.5
			C149,147.1,155,152.7,162.3,152.7L162.3,152.7z"/>
	</g>
	<g>
		<g>
			<path class="st0" d="M37.9,212.6c-2.6-0.8-4.7-1.8-6.2-3.2l2.3-5.2c1.5,1.2,3.3,2.1,5.4,2.9c2.2,0.7,4.3,1.1,6.5,1.1
				c2.7,0,4.7-0.4,6-1.3c1.3-0.9,2-2,2-3.4c0-1-0.4-1.9-1.1-2.6c-0.7-0.7-1.7-1.2-2.8-1.6c-1.1-0.4-2.7-0.8-4.6-1.3
				c-2.8-0.7-5-1.3-6.7-2s-3.2-1.7-4.4-3.1c-1.2-1.4-1.8-3.3-1.8-5.7c0-2,0.5-3.8,1.6-5.4c1.1-1.6,2.7-2.9,4.9-3.9
				c2.2-1,4.9-1.4,8-1.4c2.2,0,4.4,0.3,6.5,0.8c2.1,0.6,4,1.3,5.5,2.4L57,185c-1.6-0.9-3.2-1.6-5-2.1c-1.7-0.5-3.4-0.7-5-0.7
				c-2.7,0-4.6,0.4-5.9,1.3c-1.3,0.9-1.9,2.1-1.9,3.6c0,1,0.4,1.9,1.1,2.5c0.7,0.7,1.7,1.2,2.8,1.5c1.1,0.4,2.7,0.8,4.6,1.3
				c2.7,0.6,4.9,1.3,6.6,1.9c1.7,0.7,3.2,1.7,4.4,3.1c1.2,1.4,1.8,3.2,1.8,5.6c0,2-0.5,3.8-1.6,5.4c-1.1,1.6-2.7,2.9-4.9,3.9
				c-2.2,1-4.9,1.4-8.1,1.4C43.2,213.8,40.5,213.4,37.9,212.6z"/>
			<path class="st0" d="M74.1,211.4c-2.9-1.6-5.3-3.8-6.9-6.6c-1.7-2.8-2.5-6-2.5-9.6c0-3.5,0.8-6.7,2.5-9.6c1.7-2.8,4-5,6.9-6.6
				c2.9-1.6,6.2-2.4,9.9-2.4c3,0,5.7,0.5,8.1,1.5c2.4,1,4.5,2.5,6.2,4.5l-4.3,4.1c-2.6-2.8-5.8-4.2-9.7-4.2c-2.5,0-4.7,0.5-6.7,1.6
				c-2,1.1-3.5,2.6-4.6,4.5c-1.1,1.9-1.7,4.1-1.7,6.6c0,2.4,0.6,4.6,1.7,6.6c1.1,1.9,2.6,3.4,4.6,4.5c2,1.1,4.2,1.6,6.7,1.6
				c3.8,0,7-1.4,9.7-4.3l4.3,4.1c-1.7,2-3.8,3.5-6.2,4.5c-2.5,1-5.2,1.5-8.1,1.5C80.4,213.8,77.1,213,74.1,211.4z"/>
			<path class="st0" d="M137,177.1v36.1h-6.7v-15.5h-18.7v15.5h-6.7v-36.1h6.7V192h18.7v-14.9H137z"/>
			<path class="st0" d="M153.6,211.4c-3-1.6-5.3-3.8-7-6.7c-1.7-2.8-2.5-6-2.5-9.5c0-3.5,0.8-6.7,2.5-9.5c1.7-2.8,4-5.1,7-6.7
				c3-1.6,6.3-2.4,10-2.4s7,0.8,10,2.4c3,1.6,5.3,3.8,7,6.6c1.7,2.8,2.5,6,2.5,9.6c0,3.5-0.8,6.7-2.5,9.6c-1.7,2.8-4,5-7,6.6
				s-6.3,2.4-10,2.4S156.5,213,153.6,211.4z M170.1,206.3c1.9-1.1,3.4-2.6,4.5-4.5c1.1-1.9,1.7-4.1,1.7-6.5c0-2.4-0.6-4.6-1.7-6.5
				c-1.1-1.9-2.6-3.5-4.5-4.5c-1.9-1.1-4.1-1.6-6.5-1.6c-2.4,0-4.6,0.5-6.5,1.6c-1.9,1.1-3.4,2.6-4.5,4.5c-1.1,1.9-1.7,4.1-1.7,6.5
				c0,2.4,0.6,4.6,1.7,6.5c1.1,1.9,2.6,3.5,4.5,4.5c1.9,1.1,4.1,1.6,6.5,1.6C166,207.9,168.1,207.3,170.1,206.3z"/>
			<path class="st0" d="M197.1,211.4c-3-1.6-5.3-3.8-7-6.7c-1.7-2.8-2.5-6-2.5-9.5c0-3.5,0.8-6.7,2.5-9.5c1.7-2.8,4-5.1,7-6.7
				c3-1.6,6.3-2.4,10-2.4s7,0.8,10,2.4c3,1.6,5.3,3.8,7,6.6c1.7,2.8,2.5,6,2.5,9.6c0,3.5-0.8,6.7-2.5,9.6c-1.7,2.8-4,5-7,6.6
				s-6.3,2.4-10,2.4S200,213,197.1,211.4z M213.5,206.3c1.9-1.1,3.4-2.6,4.5-4.5c1.1-1.9,1.7-4.1,1.7-6.5c0-2.4-0.6-4.6-1.7-6.5
				c-1.1-1.9-2.6-3.5-4.5-4.5c-1.9-1.1-4.1-1.6-6.5-1.6c-2.4,0-4.6,0.5-6.5,1.6c-1.9,1.1-3.4,2.6-4.5,4.5c-1.1,1.9-1.7,4.1-1.7,6.5
				c0,2.4,0.6,4.6,1.7,6.5c1.1,1.9,2.6,3.5,4.5,4.5c1.9,1.1,4.1,1.6,6.5,1.6C209.4,207.9,211.6,207.3,213.5,206.3z"/>
			<path class="st0" d="M233.6,177.1h6.7v30.5h18.9v5.7h-25.6V177.1z"/>
		</g>
		<polygon class="st0" points="259.2,177.1 258.3,177.1 255.9,181.1 253.5,177.1 252.8,177.1 252.5,177.1 246.5,177.1 246.5,178.1 
			248.5,178.1 248.5,183.2 249.7,183.2 249.7,178.1 252.5,178.1 252.5,183.2 253.6,183.2 253.6,179.2 255.6,182.5 256.1,182.5 
			258.2,179.2 258.2,183.2 259.2,183.2 		"/>
	</g>
</g>
</svg>
