<?xml version="1.0" encoding="utf-8"?>
<!-- Generator: Adobe Illustrator 22.0.1, SVG Export Plug-In . SVG Version: 6.00 Build 0)  -->
<svg version="1.1" id="Calque_1" xmlns="http://www.w3.org/2000/svg" xmlns:xlink="http://www.w3.org/1999/xlink" x="0px" y="0px"
	 viewBox="0 0 1366 768" style="enable-background:new 0 0 1366 768;" xml:space="preserve">
<style type="text/css">
	.st0{fill:#2C2C2C;}
</style>
<g>
	<g>
		<g>
			<path class="st0" d="M577.4,426.5v-75.7h-13.6c-13.5,0-25,9.6-25.8,22.1c-0.5,8.6,3.8,16.6,11.5,21.2l3.3,2l-15.1,26.2
				c-1.5,2.5-4.3,4.1-7.4,4.1h-4.5l16.1-27.9c-7.8-6-12.3-15-12.2-24.5c0.2-17.3,15.8-31.1,34.4-31.1h21.8v75.7
				C585.8,423,582.1,426.5,577.4,426.5L577.4,426.5z"/>
			<path class="st0" d="M601.4,426.5v-75.7H615c13.5,0,25,9.6,25.8,22.1c0.5,8.6-3.8,16.6-11.5,21.2l-3.3,2l15.1,26.2
				c1.5,2.5,4.3,4.1,7.4,4.1h4.5l-16.1-27.9c7.8-6,12.3-15,12.2-24.5c-0.2-17.3-15.8-31.1-34.4-31.1H593v75.7
				C593,423,596.8,426.5,601.4,426.5L601.4,426.5z"/>
		</g>
	</g>
	<g>
		<g>
			<path class="st0" d="M668.6,398.2c-2-0.6-3.6-1.4-4.8-2.4l1.8-4c1.1,0.9,2.5,1.6,4.2,2.2c1.7,0.6,3.3,0.9,5,0.9
				c2.1,0,3.6-0.3,4.6-1c1-0.7,1.5-1.5,1.5-2.6c0-0.8-0.3-1.5-0.9-2c-0.6-0.5-1.3-0.9-2.2-1.2c-0.9-0.3-2.1-0.6-3.6-1
				c-2.1-0.5-3.9-1-5.2-1.5c-1.3-0.5-2.4-1.3-3.4-2.4c-0.9-1.1-1.4-2.5-1.4-4.4c0-1.5,0.4-2.9,1.3-4.2c0.8-1.3,2.1-2.3,3.8-3
				c1.7-0.7,3.8-1.1,6.2-1.1c1.7,0,3.4,0.2,5,0.6c1.6,0.4,3.1,1,4.3,1.8l-1.6,4c-1.2-0.7-2.5-1.3-3.8-1.6c-1.3-0.4-2.6-0.6-3.9-0.6
				c-2,0-3.6,0.3-4.6,1c-1,0.7-1.5,1.6-1.5,2.8c0,0.8,0.3,1.4,0.9,2c0.6,0.5,1.3,0.9,2.2,1.2c0.9,0.3,2.1,0.6,3.6,1
				c2.1,0.5,3.8,1,5.1,1.5c1.3,0.5,2.5,1.3,3.4,2.4c0.9,1.1,1.4,2.5,1.4,4.3c0,1.5-0.4,2.9-1.3,4.2c-0.8,1.3-2.1,2.2-3.8,3
				c-1.7,0.7-3.8,1.1-6.2,1.1C672.7,399.1,670.6,398.8,668.6,398.2z"/>
			<path class="st0" d="M696.5,397.3c-2.3-1.2-4.1-2.9-5.3-5.1c-1.3-2.2-1.9-4.6-1.9-7.4c0-2.7,0.7-5.2,2-7.4
				c1.3-2.2,3.1-3.9,5.4-5.1c2.3-1.2,4.8-1.9,7.6-1.9c2.3,0,4.4,0.4,6.3,1.2c1.9,0.8,3.5,2,4.8,3.5l-3.4,3.2c-2-2.2-4.5-3.3-7.5-3.3
				c-1.9,0-3.6,0.4-5.1,1.3c-1.5,0.8-2.7,2-3.6,3.5c-0.9,1.5-1.3,3.2-1.3,5.1c0,1.9,0.4,3.6,1.3,5.1c0.9,1.5,2,2.7,3.6,3.5
				c1.5,0.8,3.2,1.3,5.1,1.3c3,0,5.4-1.1,7.5-3.3l3.4,3.2c-1.3,1.5-2.9,2.7-4.8,3.5c-1.9,0.8-4,1.2-6.3,1.2
				C701.4,399.1,698.8,398.5,696.5,397.3z"/>
			<path class="st0" d="M745.1,370.8v27.9h-5.2v-12h-14.4v12h-5.2v-27.9h5.2v11.5h14.4v-11.5H745.1z"/>
			<path class="st0" d="M757.9,397.3c-2.3-1.2-4.1-3-5.4-5.1c-1.3-2.2-2-4.6-2-7.4c0-2.7,0.7-5.2,2-7.4c1.3-2.2,3.1-3.9,5.4-5.1
				c2.3-1.2,4.9-1.9,7.7-1.9c2.8,0,5.4,0.6,7.7,1.9c2.3,1.2,4.1,2.9,5.4,5.1c1.3,2.2,2,4.6,2,7.4c0,2.7-0.7,5.2-2,7.4
				c-1.3,2.2-3.1,3.9-5.4,5.1c-2.3,1.2-4.9,1.9-7.7,1.9C762.8,399.1,760.2,398.5,757.9,397.3z M770.6,393.3c1.5-0.8,2.7-2,3.5-3.5
				c0.9-1.5,1.3-3.2,1.3-5c0-1.9-0.4-3.5-1.3-5c-0.9-1.5-2-2.7-3.5-3.5c-1.5-0.8-3.2-1.3-5-1.3c-1.9,0-3.5,0.4-5,1.3
				c-1.5,0.8-2.7,2-3.5,3.5c-0.9,1.5-1.3,3.2-1.3,5c0,1.9,0.4,3.5,1.3,5c0.9,1.5,2,2.7,3.5,3.5c1.5,0.8,3.2,1.3,5,1.3
				C767.5,394.6,769.1,394.2,770.6,393.3z"/>
			<path class="st0" d="M791.5,397.3c-2.3-1.2-4.1-3-5.4-5.1c-1.3-2.2-2-4.6-2-7.4c0-2.7,0.7-5.2,2-7.4c1.3-2.2,3.1-3.9,5.4-5.1
				c2.3-1.2,4.9-1.9,7.7-1.9s5.4,0.6,7.7,1.9c2.3,1.2,4.1,2.9,5.4,5.1c1.3,2.2,2,4.6,2,7.4c0,2.7-0.7,5.2-2,7.4
				c-1.3,2.2-3.1,3.9-5.4,5.1c-2.3,1.2-4.9,1.9-7.7,1.9S793.8,398.5,791.5,397.3z M804.2,393.3c1.5-0.8,2.7-2,3.5-3.5
				c0.9-1.5,1.3-3.2,1.3-5c0-1.9-0.4-3.5-1.3-5c-0.9-1.5-2-2.7-3.5-3.5c-1.5-0.8-3.2-1.3-5-1.3c-1.9,0-3.5,0.4-5,1.3
				c-1.5,0.8-2.7,2-3.5,3.5c-0.9,1.5-1.3,3.2-1.3,5c0,1.9,0.4,3.5,1.3,5c0.9,1.5,2,2.7,3.5,3.5c1.5,0.8,3.2,1.3,5,1.3
				C801,394.6,802.7,394.2,804.2,393.3z"/>
			<path class="st0" d="M819.7,370.8h5.2v23.5h14.6v4.4h-19.8V370.8z"/>
		</g>
		<polygon class="st0" points="839.5,370.8 838.8,370.8 836.9,373.9 835.1,370.8 834.5,370.8 834.3,370.8 829.7,370.8 829.7,371.5 
			831.2,371.5 831.2,375.5 832.1,375.5 832.1,371.5 834.3,371.5 834.3,375.5 835.2,375.5 835.2,372.4 836.7,375 837.1,375 
			838.7,372.4 838.7,375.5 839.5,375.5 		"/>
	</g>
</g>
</svg>
